<?xml version='1.0' encoding='utf-8'?>
<svg xmlns="http://www.w3.org/2000/svg" width="1920" height="1080" viewBox="0 0 1920 1080" data-theme="dark" data-semantic-intent="taxonomy_list" data-relation-type="taxonomy" data-site-visual-identity="signal-cobalt">
  <style>
        @font-face {
            font-family: 'Inter';
            src: url('assets/fonts/Inter-Regular.ttf') format('truetype');
            font-weight: 400;
            font-style: normal;
            font-display: swap;
        }
        @font-face {
            font-family: 'Inter';
            src: url('assets/fonts/Inter-Bold.ttf') format('truetype');
            font-weight: 600;
            font-style: normal;
            font-display: swap;
        }
        @font-face {
            font-family: 'Inter';
            src: url('assets/fonts/Inter-Bold.ttf') format('truetype');
            font-weight: 800;
            font-style: normal;
            font-display: swap;
        }
        
:root {
    --background: #0f172a;
    --panel: #1e293b;
    --primary-text: #f1f5f9;
    --muted-text: #94a3b8;
    --inverse-text: #0f172a;
    --border: #334155;
    --shadow-color: #000000;
    --icon-pad-bg: #1e293b;
    --art-glow: #7dd3fc;
    --art-glow-opacity: 0.18;
    --art-sheen: #ffffff;
    --art-sheen-opacity: 0.18;
    --art-shadow: #000000;
    --art-shadow-opacity: 0.28;
    --art-muted-line: #64748b;
    --art-panel-tint: #1e293b;
    --semantic-risk: #f87171;
    --semantic-warning: #fb923c;
    --semantic-uncertain: #fbbf24;
    --semantic-evidence: #60a5fa;
    --semantic-claim: #c084fc;
    --semantic-positive: #4ade80;
    --semantic-outcome: #22d3ee;
    --font-family: 'Inter', 'Segoe UI', 'Kalam', Roboto, Helvetica, Arial, sans-serif;
    --radius-xl: 16px;
    --font-family-headline: 'Segoe UI Variable Display', 'Aptos Display', 'Inter', 'Segoe UI', Helvetica, Arial, sans-serif;
    --font-family-body: 'Segoe UI Variable Text', 'Aptos', 'Inter', 'Segoe UI', Helvetica, Arial, sans-serif;
    --font-heading: var(--font-family-headline);
    --font-body: var(--font-family-body);
    --font-size-h1: 64px;
    --font-size-h2: 42px;
    --font-size-h3: 29px;
    --font-size-body: 21px;
    --font-size-caption: 17px;
    --secondary-text: var(--muted-text);
    --panel-border: var(--border);
    --font-weight-normal: 400;
    --font-weight-medium: 500;
    --font-weight-semibold: 600;
    --font-weight-bold: 700;
    --spacing-gutter-pct: 0.07;
    --spacing-top-pct: 0.15;
    --spacing-bottom-pct: 0.07;
    --spacing-title-y-pct: 0.055;
    --accent-1: #93c5fd;
    --accent-2: #60a5fa;
    --accent-3: #818cf8;
    --accent-4: #a78bfa;
    --accent-5: #38bdf8;
    --accent-6: #fb923c;
}
:root[data-theme="dark"] {
    --background: #0f172a;
    --panel: #1e293b;
    --primary-text: #f1f5f9;
    --muted-text: #94a3b8;
    --inverse-text: #0f172a;
    --border: #334155;
    --shadow-color: #000000;
    --icon-pad-bg: #1e293b;
    --art-glow: #7dd3fc;
    --art-glow-opacity: 0.18;
    --art-sheen: #ffffff;
    --art-sheen-opacity: 0.18;
    --art-shadow: #000000;
    --art-shadow-opacity: 0.28;
    --art-muted-line: #64748b;
    --art-panel-tint: #1e293b;
    --semantic-risk: #f87171;
    --semantic-warning: #fb923c;
    --semantic-uncertain: #fbbf24;
    --semantic-evidence: #60a5fa;
    --semantic-claim: #c084fc;
    --semantic-positive: #4ade80;
    --semantic-outcome: #22d3ee;
    --accent-1: #93c5fd;
    --accent-2: #60a5fa;
    --accent-3: #818cf8;
    --accent-4: #a78bfa;
    --accent-5: #38bdf8;
    --accent-6: #fb923c;
}
:root[data-theme="light"] {
    --background: #f8fafc;
    --panel: #ffffff;
    --primary-text: #0f172a;
    --muted-text: #64748b;
    --inverse-text: #ffffff;
    --border: #e2e8f0;
    --shadow-color: #000000;
    --icon-pad-bg: #1e293b;
    --art-glow: #0891b2;
    --art-glow-opacity: 0.10;
    --art-sheen: #ffffff;
    --art-sheen-opacity: 0.34;
    --art-shadow: #0f172a;
    --art-shadow-opacity: 0.14;
    --art-muted-line: #94a3b8;
    --art-panel-tint: #f1f5f9;
    --semantic-risk: #b91c1c;
    --semantic-warning: #c2410c;
    --semantic-uncertain: #a16207;
    --semantic-evidence: #1d4ed8;
    --semantic-claim: #6d28d9;
    --semantic-positive: #15803d;
    --semantic-outcome: #0e7490;
    --accent-1: #1d4ed8;
    --accent-2: #2563eb;
    --accent-3: #4f46e5;
    --accent-4: #6d28d9;
    --accent-5: #0369a1;
    --accent-6: #c2410c;
}</style>
  <rect x="0" y="0" width="1.92E+3" height="1.08E+3" fill="#252a34" stroke="none" id="programmatic_background"/>
  <line id="HEADER_DECOR" x1="960.0" x2="1080.0" y1="135.0" y2="135.0" stroke="var(--accent-1)" stroke-width="6" stroke-linecap="round"/>
  <defs>
    <pattern id="svg913ce3a6-napkin-hatch" patternUnits="userSpaceOnUse" width="12" height="12">
      <path d="M -3 12 L 12 -3 M 0 15 L 15 0" fill="none" stroke="var(--primary-text)" stroke-width="1" stroke-opacity="0.05"/>
    </pattern>
    <filter id="svg913ce3a6-shadow" x="-30%" y="-30%" width="160%" height="160%">
      <feDropShadow dx="0" dy="2" stdDeviation="3" flood-color="#000000" flood-opacity="0.08"/>
      <feDropShadow dx="0" dy="6" stdDeviation="10" flood-color="#000000" flood-opacity="0.12"/>
    </filter>
    <marker id="svg913ce3a6-arrowhead" markerWidth="10" markerHeight="10" refX="9" refY="5" orient="auto">
      <path d="M 0 0 L 10 5 L 0 10 Z" fill="var(--accent-1)"/>
    </marker>
    <filter id="svg913ce3a6-text-glow" x="-20%" y="-20%" width="140%" height="140%">
      <feDropShadow dx="0" dy="0" stdDeviation="2" flood-color="#000000" flood-opacity="0.4"/>
    </filter>
    <radialGradient id="svg913ce3a6-universal-edge-vignette" cx="50%" cy="50%" r="72%">
      <stop offset="0%" stop-color="var(--background)" stop-opacity="0"/>
      <stop offset="72%" stop-color="var(--background)" stop-opacity="0.12"/>
      <stop offset="100%" stop-color="var(--primary-text)" stop-opacity="0.08"/>
    </radialGradient>
    <linearGradient id="svg913ce3a6-universal-surface-sheen" x1="0%" y1="0%" x2="100%" y2="100%">
      <stop offset="0%" stop-color="var(--art-sheen)" stop-opacity="var(--art-sheen-opacity)"/>
      <stop offset="46%" stop-color="var(--art-sheen)" stop-opacity="0.035"/>
      <stop offset="100%" stop-color="var(--art-panel-tint)" stop-opacity="0.14"/>
    </linearGradient>
    <radialGradient id="svg913ce3a6-universal-icon-aura" cx="50%" cy="42%" r="64%">
      <stop offset="0%" stop-color="var(--art-glow)" stop-opacity="var(--art-glow-opacity)"/>
      <stop offset="100%" stop-color="var(--background)" stop-opacity="0"/>
    </radialGradient>
  </defs>
  <rect width="100%" height="100%" fill="var(--background)" id="CANVAS_BG"/>
  <rect width="100%" height="100%" fill="url(#svg913ce3a6-napkin-hatch)"/>
  <rect id="UNIVERSAL_EDGE_VIGNETTE" width="100%" height="100%" fill="url(#svg913ce3a6-universal-edge-vignette)" opacity="0.62"/>
  <text id="TITLE" x="960.0" y="59" text-anchor="middle" font-weight="700" font-size="72" fill="#f1f5f9" style="font-size: 69px; font-family: 'Segoe UI Variable Display', 'Aptos Display', 'Inter', 'Segoe UI', Helvetica, Arial, sans-serif; font-weight: 800; font-kerning: normal; font-feature-settings: &quot;kern&quot; 1, &quot;liga&quot; 1; letter-spacing:-1.2px;" data-final-font-size="69">
    <tspan x="960.0" dy="70.47px">Factors Influencing Bosnian Sightings</tspan>
  </text>
  <rect id="TITLE_FRAME" x="134" y="59" width="1652" height="103" fill="none"/>
  <g id="DIAGRAM_SCALER" transform="translate(28.8, 27.0) scale(0.97)">
    <path d="M 960 360 L 960 450" stroke="var(--muted-text)" stroke-width="3.0" fill="none" opacity="0.52"/>
    <path d="M 210.0 450 L 1710.0 450" stroke="var(--muted-text)" stroke-width="3.0" fill="none" opacity="0.52"/>
    <path d="M 210.0 450 L 210.0 570" stroke="var(--muted-text)" stroke-width="3.0" fill="none" opacity="0.52"/>
    <path d="M 693.3 450 L 693.3 570" stroke="var(--muted-text)" stroke-width="3.0" fill="none" opacity="0.52"/>
    <path d="M 1226.7 450 L 1226.7 570" stroke="var(--muted-text)" stroke-width="3.0" fill="none" opacity="0.52"/>
    <path d="M 1710.0 450 L 1710.0 570" stroke="var(--muted-text)" stroke-width="3.0" fill="none" opacity="0.52"/>
    <g transform="translate(960.0, 270.0)">
      <rect id="ITEM_1_BG" x="-210" y="-90" width="420" height="180" rx="24" fill="var(--panel)" fill-opacity="0.86" stroke="var(--primary-text)" stroke-width="2.6"/>
      <circle id="ITEM_1_PAD" cx="0" cy="40" r="42" fill="var(--icon-pad-bg)" stroke="var(--accent-1)" opacity="1" fill-opacity="0.9" stroke-width="2" stroke-opacity="0.72" data-badge-layer="pad"/>
      <circle id="ITEM_1_PAD_INNER" cx="0" cy="40" r="32.76" fill="var(--accent-1)" fill-opacity="0.12" stroke="none" data-badge-layer="tint"/>
      <circle cx="0" cy="40" r="33.6" fill="none" stroke="var(--accent-1)" stroke-width="3" stroke-dasharray="6 4" display="none" data-suppressed-decoration="redundant-badge-ring"/>
      <g id="ITEM_1_ICON" transform="translate(-36.0, 4.0)" data-icon-size="72" stroke-linecap="round" stroke-linejoin="round" data-badge-treatment="clean">
        <g transform="translate(-5.142857142857143,-5.142857142857143) scale(2.5714285714285716)">
          <path d="M2 6C2 3.79086 3.79086 2 6 2H26C28.2091 2 30 3.79086 30 6V20L2 15V6Z" fill="#50E2FF"/>
          <path d="M17.5 7H15.25C14.5596 7 14 6.44036 14 5.75C14 5.05964 14.5596 4.5 15.25 4.5C15.5973 4.5 15.9116 4.64167 16.1381 4.87039C16.3761 4.35648 16.8964 4 17.5 4C18.3284 4 19 4.67157 19 5.5C19 6.29826 18.3764 6.95089 17.5898 6.99735V7H17.5ZM24.5 13H19.5H19.0275C19.0123 13 19 12.9877 19 12.9725C19 12.9594 18.9907 12.9481 18.9779 12.9454C17.8478 12.7053 17 11.7017 17 10.5C17 9.11929 18.1193 8 19.5 8C19.8345 8 20.1537 8.0657 20.4453 8.18489C20.7853 8.32386 21.235 8.18407 21.4074 7.85973C21.9954 6.75336 23.1597 6 24.5 6C26.433 6 28 7.567 28 9.5C28 11.416 26.4605 12.9724 24.551 12.9996L24.5508 12.9998L24.5506 13H24.5Z" fill="#F3EEF8"/>
          <path d="M6.9651 30H8.9925L13 29V9V8V7.25C13 6.55964 12.4404 6 11.75 6H10.25C9.55964 6 9 6.55964 9 7.25V8H5.25C4.55964 8 4 8.55964 4 9.25V28.4649L6.9651 30ZM18 29L20.9956 30H23.0053L28 28.4649V17.25C28 16.5596 27.4404 16 26.75 16H19.25C18.5596 16 18 16.5596 18 17.25V29Z" fill="#1C5CD7"/>
          <path d="M2 14V26C2 28.2091 3.79086 30 6 30H7V15.25C7 14.5596 6.44036 14 5.75 14H2ZM9 30H17H19H21V24.25C21 23.5596 20.4404 23 19.75 23H19V12.25C19 11.5596 18.4404 11 17.75 11H10.25C9.55964 11 9 11.5596 9 12.25V30ZM23 30H26C28.2091 30 30 28.2091 30 26V19H24.25C23.5596 19 23 19.5596 23 20.25V30Z" fill="#46A4FB"/>
          <path d="M11.5 13C11.2239 13 11 13.2239 11 13.5V14.5C11 14.7761 11.2239 15 11.5 15H12.5C12.7761 15 13 14.7761 13 14.5V13.5C13 13.2239 12.7761 13 12.5 13H11.5ZM3.5 20C3.22386 20 3 20.2239 3 20.5V21.5C3 21.7761 3.22386 22 3.5 22H4.5C4.77614 22 5 21.7761 5 21.5V20.5C5 20.2239 4.77614 20 4.5 20H3.5ZM11 17.5C11 17.2239 11.2239 17 11.5 17H12.5C12.7761 17 13 17.2239 13 17.5V18.5C13 18.7761 12.7761 19 12.5 19H11.5C11.2239 19 11 18.7761 11 18.5V17.5ZM11.5 25C11.2239 25 11 25.2239 11 25.5V26.5C11 26.7761 11.2239 27 11.5 27H12.5C12.7761 27 13 26.7761 13 26.5V25.5C13 25.2239 12.7761 25 12.5 25H11.5ZM15 17.5C15 17.2239 15.2239 17 15.5 17H16.5C16.7761 17 17 17.2239 17 17.5V18.5C17 18.7761 16.7761 19 16.5 19H15.5C15.2239 19 15 18.7761 15 18.5V17.5ZM15.5 21C15.2239 21 15 21.2239 15 21.5V22.5C15 22.7761 15.2239 23 15.5 23H16.5C16.7761 23 17 22.7761 17 22.5V21.5C17 21.2239 16.7761 21 16.5 21H15.5ZM24 22C24 21.4477 24.4477 21 25 21H30V23H25C24.4477 23 24 22.5523 24 22ZM25 25C24.4477 25 24 25.4477 24 26C24 26.5523 24.4477 27 25 27H30V25H25Z" fill="#FFF478"/>
          <path d="M11.5 13C11.2239 13 11 13.2239 11 13.5H12C12.2761 13.5 12.5 13.7239 12.5 14V15C12.7761 15 13 14.7761 13 14.5V13.5C13 13.2239 12.7761 13 12.5 13H11.5Z" fill="#FCD53F"/>
          <path d="M3.5 20C3.22386 20 3 20.2239 3 20.5H4C4.27614 20.5 4.5 20.7239 4.5 21V22C4.77614 22 5 21.7761 5 21.5V20.5C5 20.2239 4.77614 20 4.5 20H3.5Z" fill="#FCD53F"/>
          <path d="M11 17.5C11 17.2239 11.2239 17 11.5 17H12.5C12.7761 17 13 17.2239 13 17.5V18.5C13 18.7761 12.7761 19 12.5 19V18C12.5 17.7239 12.2761 17.5 12 17.5H11Z" fill="#FCD53F"/>
          <path d="M11.5 25C11.2239 25 11 25.2239 11 25.5H12C12.2761 25.5 12.5 25.7239 12.5 26V27C12.7761 27 13 26.7761 13 26.5V25.5C13 25.2239 12.7761 25 12.5 25H11.5Z" fill="#FCD53F"/>
          <path d="M15 17.5C15 17.2239 15.2239 17 15.5 17H16.5C16.7761 17 17 17.2239 17 17.5V18.5C17 18.7761 16.7761 19 16.5 19V18C16.5 17.7239 16.2761 17.5 16 17.5H15Z" fill="#FCD53F"/>
          <path d="M15.5 21C15.2239 21 15 21.2239 15 21.5H16C16.2761 21.5 16.5 21.7239 16.5 22V23C16.7761 23 17 22.7761 17 22.5V21.5C17 21.2239 16.7761 21 16.5 21H15.5Z" fill="#FCD53F"/>
          <path d="M25 21C24.6299 21 24.3067 21.2011 24.1338 21.5H30V21H25Z" fill="#FCD53F"/>
          <path d="M25 25C24.6299 25 24.3067 25.2011 24.1338 25.5H30V25H25Z" fill="#FCD53F"/>
          <path d="M15 13.5C15 13.2239 15.2239 13 15.5 13H16.5C16.7761 13 17 13.2239 17 13.5V14.5C17 14.7761 16.7761 15 16.5 15H15.5C15.2239 15 15 14.7761 15 14.5V13.5ZM3 16.5C3 16.2239 3.22386 16 3.5 16H4.5C4.77614 16 5 16.2239 5 16.5V17.5C5 17.7761 4.77614 18 4.5 18H3.5C3.22386 18 3 17.7761 3 17.5V16.5ZM3 24.5C3 24.2239 3.22386 24 3.5 24H4.5C4.77614 24 5 24.2239 5 24.5V25.5C5 25.7761 4.77614 26 4.5 26H3.5C3.22386 26 3 25.7761 3 25.5V24.5ZM11.5 21C11.2239 21 11 21.2239 11 21.5V22.5C11 22.7761 11.2239 23 11.5 23H12.5C12.7761 23 13 22.7761 13 22.5V21.5C13 21.2239 12.7761 21 12.5 21H11.5ZM15.5 25C15.2239 25 15 25.2239 15 25.5V26.5C15 26.7761 15.2239 27 15.5 27H16.5C16.7761 27 17 26.7761 17 26.5V25.5C17 25.2239 16.7761 25 16.5 25H15.5Z" fill="#321B41"/>
          <path d="M20.5 24V30H21V24C21 23.4477 20.5523 23 20 23H19V12C19 11.4477 18.5523 11 18 11H15L18 11.5C18.2761 11.5 18.5 11.7239 18.5 12V23.25C18.5 23.3881 18.6119 23.5 18.75 23.5H20C20.2761 23.5 20.5 23.7239 20.5 24Z" fill="#46A4FB"/>
        </g>
      </g>
      <text id="ITEM_1_HEAD" x="0.0" y="-80.0" text-anchor="middle" font-weight="bold" font-size="36" fill="var(--accent-1)" data-bg-id="ITEM_1_BG" fill-opacity="1.0" stroke="none" style="font-size: 31px; font-family: 'Segoe UI Variable Display', 'Aptos Display', 'Inter', 'Segoe UI', Helvetica, Arial, sans-serif; font-weight: 700; font-kerning: normal; font-feature-settings: &quot;kern&quot; 1, &quot;liga&quot; 1; letter-spacing:-0.4px;" data-final-font-size="31">
        <tspan x="0.0" dy="35.07px">Population Density</tspan>
      </text>
      <rect id="ITEM_1_HEAD_FRAME" x="-180" y="-80" width="360" height="45" fill="none"/>
    </g>
    <g transform="translate(210.0, 720)">
      <rect id="ITEM_2_BG" x="-180.0" y="-150" width="360" height="390" rx="24" fill="var(--accent-2)" fill-opacity="0.48" stroke="var(--accent-1)" stroke-width="2.6"/>
      <text id="ITEM_2_HEAD" x="0.0" y="8.0" text-anchor="middle" font-weight="bold" font-size="30" fill="var(--primary-text)" data-bg-id="ITEM_2_BG" fill-opacity="1.0" stroke="none" style="font-size: 31px; font-family: 'Segoe UI Variable Display', 'Aptos Display', 'Inter', 'Segoe UI', Helvetica, Arial, sans-serif; font-weight: 700; font-kerning: normal; font-feature-settings: &quot;kern&quot; 1, &quot;liga&quot; 1; letter-spacing:-0.4px;" data-final-font-size="31">
        <tspan x="0.0" dy="49.82px">Geographic Basin</tspan>
      </text>
      <rect id="ITEM_2_HEAD_FRAME" x="-150.0" y="8" width="300" height="70" fill="none"/>
      <text id="ITEM_2_BODY" x="0.0" y="82.0" text-anchor="middle" font-size="23" fill="var(--primary-text)" opacity="0.94" data-bg-id="ITEM_2_BG" data-max-lines="5" style="font-size: 23px; font-family: 'Segoe UI Variable Text', 'Aptos', 'Inter', 'Segoe UI', Helvetica, Arial, sans-serif; font-weight: 400; font-kerning: normal; font-feature-settings: &quot;kern&quot; 1, &quot;liga&quot; 1;" data-final-font-size="23">
        <tspan x="0.0" dy="33.31px">Mountainous terrain restricts</tspan>
        <tspan x="0.0" dy="26.45px">sightlines and alters perception</tspan>
      </text>
      <rect id="ITEM_2_BODY_FRAME" x="-174" y="82" width="348" height="108" fill="none"/>
      <circle id="ITEM_2_PAD" cx="0" cy="-45.0" r="62" fill="var(--icon-pad-bg)" stroke="var(--accent-2)" stroke-width="2" stroke-opacity="0.72" opacity="1" fill-opacity="0.9" data-badge-layer="pad"/>
      <circle id="ITEM_2_PAD_INNER" cx="0" cy="-45.0" r="48.36" fill="var(--accent-2)" fill-opacity="0.12" stroke="none" data-badge-layer="tint"/>
      <circle cx="0" cy="-45.0" r="49.6" fill="none" stroke="var(--accent-1)" stroke-width="3" stroke-dasharray="6 4" display="none" data-suppressed-decoration="redundant-badge-ring"/>
      <g id="ITEM_2_ICON" transform="translate(-48.0, -93.0)" data-icon-size="96" stroke-linecap="round" stroke-linejoin="round" data-badge-treatment="clean">
        <g transform="translate(-7.268571428571428,-10.291071428571426) scale(3.454285714285714)">
          <path d="M8.97695 9.81822C7.68369 9.81822 7.53001 10.5467 7.61483 10.9109V25.3158L24.7324 27.2146L30.0002 22.5V15.0422L23.1876 8.26566L22.8596 8.02197L15.5002 9L12.4142 8.02197C12.2033 8.15625 11.951 8.32512 11.8094 8.46545C10.993 9.27463 10.3546 9.81822 8.97695 9.81822Z" fill="#8C5543"/>
          <path d="M13.6198 9.31063C13.035 9.08884 12.4462 8.80135 11.8037 8.47407C12.4581 7.81966 14.0595 6.21636 15.2299 5.03847C16.6928 3.5661 18.656 3.69821 19.9679 5.03847C20.2326 5.30884 20.5296 5.60931 20.8363 5.91774C18.5156 7.0625 16.3906 7.6875 13.6198 9.31063Z" fill="#CDC4D6"/>
          <path d="M13.1558 9.12228C14.1001 9.52955 15.0007 9.7862 16.0606 9.7862C17.6085 9.7862 18.8166 9.19163 19.4207 8.87073C20.0247 8.54982 21.0818 8.2006 21.9973 8.2006C22.7003 8.2006 23.0885 8.25855 23.2104 8.29102C22.8107 7.89374 22.362 7.44613 21.9279 7.00997C21.5508 6.63436 21.1458 6.22946 20.7593 5.84035C19.4543 4.68908 17.6172 4.64256 16.23 6.03871C15.2344 7.04072 13.9269 8.35058 13.1558 9.12228Z" fill="#F4F4F4"/>
          <path d="M5.96834 11.2402C5.07024 12.3299 2.95313 14.8594 2.00684 15.9879V22.5L16 27.8125L22.9724 25.3105L15.8325 18.1406C14.7667 17.0629 13.3627 16.2097 11.7162 16.2097C9.99483 16.2097 8.99195 14.7428 8.99195 13.0065C8.99195 10.9666 12.3886 10.1728 13.1604 9.12524C12.4433 8.81133 12.1057 8.64478 11.8209 8.46558C10.6252 9.68774 9.79822 9.78931 9.29321 9.78931C8.96166 9.78931 7.59646 9.61208 5.96834 11.2402Z" fill="#7D4533"/>
          <path d="M11.0125 23.0202C7.06082 21.6581 4.12549 21.9275 2 22.4664V29.9955H30V22.4609C26.8267 23.8679 23.4212 25.0261 20.0084 25.0261C16.5956 25.0261 14.9641 24.3824 11.0125 23.0202Z" fill="#00D26A"/>
        </g>
      </g>
    </g>
    <g transform="translate(693.3, 720)">
      <rect id="ITEM_3_BG" x="-180.0" y="-150" width="360" height="390" rx="24" fill="var(--accent-3)" fill-opacity="0.48" stroke="var(--accent-2)" stroke-width="2.6"/>
      <text id="ITEM_3_HEAD" x="0.0" y="8.0" text-anchor="middle" font-weight="bold" font-size="30" fill="var(--primary-text)" data-bg-id="ITEM_3_BG" fill-opacity="1.0" stroke="none" style="font-size: 31px; font-family: 'Segoe UI Variable Display', 'Aptos Display', 'Inter', 'Segoe UI', Helvetica, Arial, sans-serif; font-weight: 700; font-kerning: normal; font-feature-settings: &quot;kern&quot; 1, &quot;liga&quot; 1; letter-spacing:-0.4px;" data-final-font-size="31">
        <tspan x="0.0" dy="49.82px">Aviation Activity</tspan>
      </text>
      <rect id="ITEM_3_HEAD_FRAME" x="-150.0" y="8" width="300" height="70" fill="none"/>
      <text id="ITEM_3_BODY" x="0.0" y="82.0" text-anchor="middle" font-size="23" fill="var(--primary-text)" opacity="0.94" data-bg-id="ITEM_3_BG" data-max-lines="5" style="font-size: 23px; font-family: 'Segoe UI Variable Text', 'Aptos', 'Inter', 'Segoe UI', Helvetica, Arial, sans-serif; font-weight: 400; font-kerning: normal; font-feature-settings: &quot;kern&quot; 1, &quot;liga&quot; 1;" data-final-font-size="23">
        <tspan x="0.0" dy="33.31px">Regulated drones and aircraft</tspan>
        <tspan x="0.0" dy="26.45px">share the same airspace</tspan>
      </text>
      <rect id="ITEM_3_BODY_FRAME" x="-174" y="82" width="348" height="108" fill="none"/>
      <circle id="ITEM_3_PAD" cx="0" cy="-45.0" r="62" fill="var(--icon-pad-bg)" stroke="var(--accent-3)" stroke-width="2" stroke-opacity="0.72" opacity="1" fill-opacity="0.9" data-badge-layer="pad"/>
      <circle id="ITEM_3_PAD_INNER" cx="0" cy="-45.0" r="48.36" fill="var(--accent-3)" fill-opacity="0.12" stroke="none" data-badge-layer="tint"/>
      <circle cx="0" cy="-45.0" r="49.6" fill="none" stroke="var(--accent-2)" stroke-width="3" stroke-dasharray="6 4" display="none" data-suppressed-decoration="redundant-badge-ring"/>
      <g id="ITEM_3_ICON" transform="translate(-48.0, -93.0)" data-icon-size="96" stroke-linecap="round" stroke-linejoin="round" data-badge-treatment="clean">
        <g transform="translate(-7.268571428571428,-7.268571428571428) scale(3.454285714285714)">
          <path d="M14.9998 5.5L16.6147 4.98752L16.6662 4.93638C17.1092 4.49106 17.1092 3.78065 16.6768 3.33532C16.2443 2.88999 15.5272 2.89002 15.0842 3.32474L14.0215 4.38018L14.9998 5.5ZM28.659 17.9364L27.9804 18.6117L26.9998 17.5L27.4424 16.0851C27.8529 15.9163 28.3427 15.9981 28.6695 16.3353C29.1116 16.77 29.1116 17.4911 28.659 17.9364Z" fill="#9B9B9B"/>
          <path d="M14.1209 28.8751L12.7723 23.3207C14.5105 22.308 16.1288 21.1049 17.5973 19.7113L21.0251 16.4565L24.4676 14.906L26.411 11.3426L28.7058 9.16379C30.394 7.5596 30.434 4.88261 28.8057 3.2283C27.1674 1.57399 24.5001 1.59405 22.8818 3.26841L20.3602 5.89209L16.2607 7.61854L15.2234 11.2368L12.2628 14.3172C10.8643 15.781 9.63554 17.3952 8.6166 19.1297L3.09231 17.7261C2.78264 17.6459 2.46297 17.7361 2.2332 17.9567C1.79366 18.3978 2.03342 18.9493 2.47296 19.4105L12.4227 29.4968C12.9121 30.0181 13.4316 30.1886 13.8712 29.7474C14.1109 29.5068 14.2008 29.186 14.1209 28.8751Z" fill="#CDC4D6"/>
          <path d="M27.7929 5.76988L26.2533 4.21808C25.9708 3.92892 25.503 3.92894 25.2205 4.20846C24.9282 4.48797 24.9282 4.95062 25.2107 5.23013L26.7503 6.78191C27.0329 7.07106 27.5006 7.07107 27.7831 6.79156C28.0657 6.51204 28.0755 6.05904 27.7929 5.76988Z" fill="#00A6ED"/>
          <path d="M15.2156 11.2449L20.3817 5.8697L8.34626 3.051C7.88626 2.941 7.39625 3.011 6.97625 3.241C5.67625 3.971 5.67625 5.83101 6.96625 6.56101L15.2156 11.2449ZM26.4293 11.3253L21.0085 16.4723L25.46 24.7C26.16 26.01 28.03 26.04 28.78 24.76C29.02 24.35 29.1 23.87 29 23.4L26.4293 11.3253ZM8.15643 22.3151C8.57618 21.8934 9.26303 21.8934 9.68277 22.3246C10.1121 22.7463 10.1025 23.4363 9.67323 23.8579L6.83996 26.6849C6.42022 27.1066 5.73337 27.1066 5.31362 26.6754C4.89388 26.2537 4.89388 25.5637 5.32317 25.1421L8.15643 22.3151Z" fill="#0084CE"/>
        </g>
      </g>
    </g>
    <g transform="translate(1226.7, 720)">
      <rect id="ITEM_4_BG" x="-180.0" y="-150" width="360" height="390" rx="24" fill="var(--accent-1)" fill-opacity="0.48" stroke="var(--accent-3)" stroke-width="2.6"/>
      <text id="ITEM_4_HEAD" x="0.0" y="8.0" text-anchor="middle" font-weight="bold" font-size="30" fill="var(--primary-text)" data-bg-id="ITEM_4_BG" fill-opacity="1.0" stroke="none" style="font-size: 31px; font-family: 'Segoe UI Variable Display', 'Aptos Display', 'Inter', 'Segoe UI', Helvetica, Arial, sans-serif; font-weight: 700; font-kerning: normal; font-feature-settings: &quot;kern&quot; 1, &quot;liga&quot; 1; letter-spacing:-0.4px;" data-final-font-size="31">
        <tspan x="0.0" dy="49.82px">Atmospheric Conditions</tspan>
      </text>
      <rect id="ITEM_4_HEAD_FRAME" x="-150.0" y="8" width="300" height="70" fill="none"/>
      <text id="ITEM_4_BODY" x="0.0" y="82.0" text-anchor="middle" font-size="23" fill="var(--primary-text)" opacity="0.94" data-bg-id="ITEM_4_BG" data-max-lines="5" style="font-size: 23px; font-family: 'Segoe UI Variable Text', 'Aptos', 'Inter', 'Segoe UI', Helvetica, Arial, sans-serif; font-weight: 400; font-kerning: normal; font-feature-settings: &quot;kern&quot; 1, &quot;liga&quot; 1;" data-final-font-size="23">
        <tspan x="0.0" dy="33.31px">Haze and temperature inversions</tspan>
        <tspan x="0.0" dy="26.45px">distort distant lights</tspan>
      </text>
      <rect id="ITEM_4_BODY_FRAME" x="-174" y="82" width="348" height="108" fill="none"/>
      <circle id="ITEM_4_PAD" cx="0" cy="-45.0" r="62" fill="var(--icon-pad-bg)" stroke="var(--accent-1)" stroke-width="2" stroke-opacity="0.72" opacity="1" fill-opacity="0.9" data-badge-layer="pad"/>
      <circle id="ITEM_4_PAD_INNER" cx="0" cy="-45.0" r="48.36" fill="var(--accent-1)" fill-opacity="0.12" stroke="none" data-badge-layer="tint"/>
      <circle cx="0" cy="-45.0" r="49.6" fill="none" stroke="var(--accent-3)" stroke-width="3" stroke-dasharray="6 4" display="none" data-suppressed-decoration="redundant-badge-ring"/>
      <g id="ITEM_4_ICON" transform="translate(-48.0, -93.0)" data-icon-size="96" stroke-linecap="round" stroke-linejoin="round" data-badge-treatment="clean">
        <g transform="translate(-3.583999999999999,-3.5839999999999925) scale(3.2239999999999998)">
          <path d="M27.938 8.83821C24.0423 5.04133 17.8344 5.05797 13.9753 8.86406C13.4392 8.67001 12.8612 8.56433 12.26 8.56433C10.458 8.56433 8.87859 9.50994 7.98809 10.929C4.08596 11.1722 1 14.4106 1 18.3743C1 20.1277 1.61099 21.7416 2.62059 23.0183C3.99219 24.8117 6.14877 25.9643 8.58 25.9643H21.27C24.4212 25.9643 27.2042 24.4125 28.9045 22.0385C31.9165 18.083 31.5813 12.4038 27.9394 8.83964L27.938 8.83821Z" fill="#B4ACBC"/>
          <path d="M14.55 9.70434C18.01 6.15434 23.69 6.09434 27.24 9.55434C30.52 12.7643 30.82 17.8843 28.1 21.4443C26.58 23.5743 24.09 24.9643 21.27 24.9643H8.58C6.47 24.9643 4.6 23.9643 3.41 22.4043C2.53 21.2943 2 19.8943 2 18.3743C2 14.8043 4.89 11.9143 8.46 11.9143C8.50303 11.9143 8.54595 11.9148 8.58877 11.9156C9.22825 10.5277 10.6316 9.56433 12.26 9.56433C12.9685 9.56433 13.6345 9.74673 14.2134 10.0671C14.3215 9.94392 14.4337 9.82294 14.55 9.70434Z" fill="#F3EEF8"/>
        </g>
      </g>
    </g>
    <g transform="translate(1710.0, 720)">
      <rect id="ITEM_5_BG" x="-180.0" y="-150" width="360" height="390" rx="24" fill="var(--accent-2)" fill-opacity="0.48" stroke="var(--accent-4)" stroke-width="2.6"/>
      <text id="ITEM_5_HEAD" x="0.0" y="8.0" text-anchor="middle" font-weight="bold" font-size="30" fill="var(--primary-text)" data-bg-id="ITEM_5_BG" fill-opacity="1.0" stroke="none" style="font-size: 31px; font-family: 'Segoe UI Variable Display', 'Aptos Display', 'Inter', 'Segoe UI', Helvetica, Arial, sans-serif; font-weight: 700; font-kerning: normal; font-feature-settings: &quot;kern&quot; 1, &quot;liga&quot; 1; letter-spacing:-0.4px;" data-final-font-size="31">
        <tspan x="0.0" dy="49.82px">Digital Artifacts</tspan>
      </text>
      <rect id="ITEM_5_HEAD_FRAME" x="-150.0" y="8" width="300" height="70" fill="none"/>
      <text id="ITEM_5_BODY" x="0.0" y="82.0" text-anchor="middle" font-size="23" fill="var(--primary-text)" opacity="0.94" data-bg-id="ITEM_5_BG" data-max-lines="5" style="font-size: 23px; font-family: 'Segoe UI Variable Text', 'Aptos', 'Inter', 'Segoe UI', Helvetica, Arial, sans-serif; font-weight: 400; font-kerning: normal; font-feature-settings: &quot;kern&quot; 1, &quot;liga&quot; 1;" data-final-font-size="23">
        <tspan x="0.0" dy="33.31px">Autofocus and compression create</tspan>
        <tspan x="0.0" dy="26.45px">false geometric shapes</tspan>
      </text>
      <rect id="ITEM_5_BODY_FRAME" x="-174" y="82" width="348" height="108" fill="none"/>
      <circle id="ITEM_5_PAD" cx="0" cy="-45.0" r="62" fill="var(--icon-pad-bg)" stroke="var(--accent-2)" stroke-width="2" stroke-opacity="0.72" opacity="1" fill-opacity="0.9" data-badge-layer="pad"/>
      <circle id="ITEM_5_PAD_INNER" cx="0" cy="-45.0" r="48.36" fill="var(--accent-2)" fill-opacity="0.12" stroke="none" data-badge-layer="tint"/>
      <circle cx="0" cy="-45.0" r="49.6" fill="none" stroke="var(--accent-4)" stroke-width="3" stroke-dasharray="6 4" display="none" data-suppressed-decoration="redundant-badge-ring"/>
      <g id="ITEM_5_ICON" transform="translate(-48.0, -93.0)" data-icon-size="96" stroke-linecap="round" stroke-linejoin="round" data-badge-treatment="clean">
        <g transform="translate(-7.268571428571428,-7.70035714285714) scale(3.454285714285714)">
          <path d="M4.71839 18.0233C5.11525 17.458 5.8952 17.3215 6.46045 17.7184L18.5318 26.1936L17.0946 28.2406L5.02328 19.7653C4.45803 19.3685 4.32152 18.5885 4.71839 18.0233Z" fill="#5092FF"/>
          <path d="M18.5013 2.80347C18.8302 2.3598 19.4615 2.25982 19.9114 2.58017L21.5841 3.77124C22.034 4.09158 22.1321 4.71094 21.8032 5.15461L13.1102 16.8809C12.4436 17.7801 11.1641 17.9827 10.2523 17.3335C9.34053 16.6842 9.14176 15.429 9.80835 14.5298L18.5013 2.80347Z" fill="#636363"/>
          <path d="M18.0472 3.66594C16.8384 3.31432 15.3804 3.86071 14.5971 4.91739L11.7749 8.7243L11.9999 10.0001L10.6024 10.306L10.3989 10.5805C9.07399 12.3677 9.47824 14.8692 11.3018 16.1677C13.1254 17.4662 15.6778 17.07 17.0027 15.2828L17.1623 15.0675L16.9999 13.5001H18.3242L18.4883 13.2787C21.992 13.9302 23.8684 16.851 23.963 19.8545C24.0149 21.5041 23.5209 23.1307 22.4806 24.3899C21.4537 25.6329 19.8112 26.6185 17.3793 26.8486C16.5451 26.9276 15.9304 27.6956 16.0062 28.564C16.082 29.4325 16.8197 30.0725 17.6539 29.9935C20.7829 29.6974 23.1847 28.3804 24.7802 26.4491C26.3624 24.5339 27.069 22.1145 26.9946 19.751C26.8719 15.8564 24.6058 11.9837 20.5048 10.5586L21.2008 9.61967C21.9842 8.56299 22.0639 7.03517 21.3491 6.01708L18.0472 3.66594Z" fill="#BEBEBE"/>
          <path d="M2 29.2C2 27.4327 3.43269 26 5.2 26H26.8C28.5673 26 30 27.4327 30 29.2C30 29.6418 29.6418 30 29.2 30H2.8C2.35817 30 2 29.6418 2 29.2Z" fill="#9B9B9B"/>
          <path d="M11.7757 8.70947L18.3343 13.4746L17.1588 15.0927L10.6001 10.3275L11.7757 8.70947Z" fill="#D3D3D3"/>
        </g>
      </g>
    </g>
  </g>
  <text id="SOURCE_NOTE" x="134.0" y="1058.0" fill="var(--muted-text)" opacity="0.88" style="font-family: var(--font-family); font-size: 20px;">Source: Introduction</text>
</svg>
