<?xml version='1.0' encoding='utf-8'?>
<svg xmlns="http://www.w3.org/2000/svg" width="1920" height="1080" viewBox="0 0 1920 1080" data-theme="dark" data-semantic-intent="sequence" data-relation-type="sequence" data-site-visual-identity="signal-cobalt">
  <style>
        @font-face {
            font-family: 'Inter';
            src: url('assets/fonts/Inter-Regular.ttf') format('truetype');
            font-weight: 400;
            font-style: normal;
            font-display: swap;
        }
        @font-face {
            font-family: 'Inter';
            src: url('assets/fonts/Inter-Bold.ttf') format('truetype');
            font-weight: 600;
            font-style: normal;
            font-display: swap;
        }
        @font-face {
            font-family: 'Inter';
            src: url('assets/fonts/Inter-Bold.ttf') format('truetype');
            font-weight: 800;
            font-style: normal;
            font-display: swap;
        }
        
:root {
    --background: #0f172a;
    --panel: #1e293b;
    --primary-text: #f1f5f9;
    --muted-text: #94a3b8;
    --inverse-text: #0f172a;
    --border: #334155;
    --shadow-color: #000000;
    --icon-pad-bg: #1e293b;
    --art-glow: #7dd3fc;
    --art-glow-opacity: 0.18;
    --art-sheen: #ffffff;
    --art-sheen-opacity: 0.18;
    --art-shadow: #000000;
    --art-shadow-opacity: 0.28;
    --art-muted-line: #64748b;
    --art-panel-tint: #1e293b;
    --semantic-risk: #f87171;
    --semantic-warning: #fb923c;
    --semantic-uncertain: #fbbf24;
    --semantic-evidence: #60a5fa;
    --semantic-claim: #c084fc;
    --semantic-positive: #4ade80;
    --semantic-outcome: #22d3ee;
    --font-family: 'Inter', 'Segoe UI', 'Kalam', Roboto, Helvetica, Arial, sans-serif;
    --radius-xl: 16px;
    --font-family-headline: 'Segoe UI Variable Display', 'Aptos Display', 'Inter', 'Segoe UI', Helvetica, Arial, sans-serif;
    --font-family-body: 'Segoe UI Variable Text', 'Aptos', 'Inter', 'Segoe UI', Helvetica, Arial, sans-serif;
    --font-heading: var(--font-family-headline);
    --font-body: var(--font-family-body);
    --font-size-h1: 64px;
    --font-size-h2: 42px;
    --font-size-h3: 29px;
    --font-size-body: 21px;
    --font-size-caption: 17px;
    --secondary-text: var(--muted-text);
    --panel-border: var(--border);
    --font-weight-normal: 400;
    --font-weight-medium: 500;
    --font-weight-semibold: 600;
    --font-weight-bold: 700;
    --spacing-gutter-pct: 0.07;
    --spacing-top-pct: 0.15;
    --spacing-bottom-pct: 0.07;
    --spacing-title-y-pct: 0.055;
    --accent-1: #93c5fd;
    --accent-2: #60a5fa;
    --accent-3: #818cf8;
    --accent-4: #a78bfa;
    --accent-5: #38bdf8;
    --accent-6: #fb923c;
}
:root[data-theme="dark"] {
    --background: #0f172a;
    --panel: #1e293b;
    --primary-text: #f1f5f9;
    --muted-text: #94a3b8;
    --inverse-text: #0f172a;
    --border: #334155;
    --shadow-color: #000000;
    --icon-pad-bg: #1e293b;
    --art-glow: #7dd3fc;
    --art-glow-opacity: 0.18;
    --art-sheen: #ffffff;
    --art-sheen-opacity: 0.18;
    --art-shadow: #000000;
    --art-shadow-opacity: 0.28;
    --art-muted-line: #64748b;
    --art-panel-tint: #1e293b;
    --semantic-risk: #f87171;
    --semantic-warning: #fb923c;
    --semantic-uncertain: #fbbf24;
    --semantic-evidence: #60a5fa;
    --semantic-claim: #c084fc;
    --semantic-positive: #4ade80;
    --semantic-outcome: #22d3ee;
    --accent-1: #93c5fd;
    --accent-2: #60a5fa;
    --accent-3: #818cf8;
    --accent-4: #a78bfa;
    --accent-5: #38bdf8;
    --accent-6: #fb923c;
}
:root[data-theme="light"] {
    --background: #f8fafc;
    --panel: #ffffff;
    --primary-text: #0f172a;
    --muted-text: #64748b;
    --inverse-text: #ffffff;
    --border: #e2e8f0;
    --shadow-color: #000000;
    --icon-pad-bg: #1e293b;
    --art-glow: #0891b2;
    --art-glow-opacity: 0.10;
    --art-sheen: #ffffff;
    --art-sheen-opacity: 0.34;
    --art-shadow: #0f172a;
    --art-shadow-opacity: 0.14;
    --art-muted-line: #94a3b8;
    --art-panel-tint: #f1f5f9;
    --semantic-risk: #b91c1c;
    --semantic-warning: #c2410c;
    --semantic-uncertain: #a16207;
    --semantic-evidence: #1d4ed8;
    --semantic-claim: #6d28d9;
    --semantic-positive: #15803d;
    --semantic-outcome: #0e7490;
    --accent-1: #1d4ed8;
    --accent-2: #2563eb;
    --accent-3: #4f46e5;
    --accent-4: #6d28d9;
    --accent-5: #0369a1;
    --accent-6: #c2410c;
}</style>
  <rect x="0" y="0" width="1.92E+3" height="1.08E+3" fill="#252a34" stroke="none" id="programmatic_background"/>
  <line id="HEADER_DECOR" x1="960.0" x2="1080.0" y1="135.0" y2="135.0" stroke="var(--accent-1)" stroke-width="6" stroke-linecap="round"/>
  <defs>
    <pattern id="svg9fe15fce-napkin-hatch" patternUnits="userSpaceOnUse" width="12" height="12">
      <path d="M -3 12 L 12 -3 M 0 15 L 15 0" fill="none" stroke="var(--primary-text)" stroke-width="1" stroke-opacity="0.05"/>
    </pattern>
    <radialGradient id="svg9fe15fce-universal-edge-vignette" cx="50%" cy="50%" r="72%">
      <stop offset="0%" stop-color="var(--background)" stop-opacity="0"/>
      <stop offset="72%" stop-color="var(--background)" stop-opacity="0.12"/>
      <stop offset="100%" stop-color="var(--primary-text)" stop-opacity="0.08"/>
    </radialGradient>
    <linearGradient id="svg9fe15fce-universal-surface-sheen" x1="0%" y1="0%" x2="100%" y2="100%">
      <stop offset="0%" stop-color="var(--art-sheen)" stop-opacity="var(--art-sheen-opacity)"/>
      <stop offset="46%" stop-color="var(--art-sheen)" stop-opacity="0.035"/>
      <stop offset="100%" stop-color="var(--art-panel-tint)" stop-opacity="0.14"/>
    </linearGradient>
    <radialGradient id="svg9fe15fce-universal-icon-aura" cx="50%" cy="42%" r="64%">
      <stop offset="0%" stop-color="var(--art-glow)" stop-opacity="var(--art-glow-opacity)"/>
      <stop offset="100%" stop-color="var(--background)" stop-opacity="0"/>
    </radialGradient>
    <linearGradient id="svg9fe15fce-timeline-snake-route-glow" x1="0%" y1="0%" x2="100%" y2="100%">
      <stop offset="0%" stop-color="var(--art-glow)" stop-opacity="0"/>
      <stop offset="48%" stop-color="var(--art-glow)" stop-opacity="var(--art-glow-opacity)"/>
      <stop offset="100%" stop-color="var(--art-glow)" stop-opacity="0"/>
    </linearGradient>
    <linearGradient id="svg9fe15fce-timeline-snake-card-sheen" x1="0%" y1="0%" x2="100%" y2="100%">
      <stop offset="0%" stop-color="var(--art-sheen)" stop-opacity="var(--art-sheen-opacity)"/>
      <stop offset="100%" stop-color="var(--art-panel-tint)" stop-opacity="0.12"/>
    </linearGradient>
    <filter id="svg9fe15fce-text-glow" x="-20%" y="-20%" width="140%" height="140%">
      <feDropShadow dx="0" dy="0" stdDeviation="2" flood-color="#000000" flood-opacity="0.4"/>
    </filter>
    <filter id="svg9fe15fce-shadow" x="-30%" y="-30%" width="160%" height="160%">
      <feDropShadow dx="0" dy="2" stdDeviation="3" flood-color="#000000" flood-opacity="0.08"/>
      <feDropShadow dx="0" dy="6" stdDeviation="10" flood-color="#000000" flood-opacity="0.12"/>
    </filter>
    <marker id="svg9fe15fce-arrowhead" markerWidth="10" markerHeight="7" refX="9" refY="3.5" orient="auto" markerUnits="strokeWidth">
      <polygon points="0 0, 10 3.5, 0 7" fill="var(--muted-text)" opacity="0.6"/>
    </marker>
    <marker id="svg9fe15fce-PHX_SEQUENCE_DIRECTION_ARROW" markerWidth="18" markerHeight="18" refX="16" refY="9" orient="auto" markerUnits="userSpaceOnUse">
      <path d="M 0 0 L 18 9 L 0 18 Z" fill="var(--muted-text)" opacity="0.9"/>
    </marker>
  </defs>
  <rect width="100%" height="100%" fill="var(--background)" id="CANVAS_BG"/>
  <rect width="100%" height="100%" fill="url(#svg9fe15fce-napkin-hatch)"/>
  <rect id="UNIVERSAL_EDGE_VIGNETTE" width="100%" height="100%" fill="url(#svg9fe15fce-universal-edge-vignette)" opacity="0.62"/>
  <text id="TITLE" x="960.0" y="59" text-anchor="middle" font-size="63" font-weight="700" fill="#f1f5f9" style="font-size: 69px; font-family: 'Segoe UI Variable Display', 'Aptos Display', 'Inter', 'Segoe UI', Helvetica, Arial, sans-serif; font-weight: 800; font-kerning: normal; font-feature-settings: &quot;kern&quot; 1, &quot;liga&quot; 1; letter-spacing:-1.2px;" data-final-font-size="69">
    <tspan x="960.0" dy="70.47px">Key Stages in the Tripoli Landing Narrative</tspan>
  </text>
  <rect id="TITLE_FRAME" x="134" y="59" width="1652" height="103" fill="none"/>
  <g id="DIAGRAM_SCALER" transform="translate(50.3, 30.2) scale(0.95)">
    <path d="M 480 360 L 1440 360 C 1590 360 1590 750 1440 750 L 480 750" fill="none" stroke="var(--muted-text)" stroke-width="5" stroke-linecap="round" stroke-opacity="0.26" marker-end="url(#svg9fe15fce-PHX_SEQUENCE_DIRECTION_ARROW)" data-direction-cue="forward"/>
    <g transform="translate(480.0, 360.0)">
      <circle id="ITEM_1_NODE" r="50" fill="none" stroke="var(--accent-1)" stroke-width="2" stroke-opacity="0.58" data-badge-layer="outline"/>
      <rect id="ITEM_1_TEXT_BG" x="-208.0" y="74.0" width="416.0" height="206.0" rx="22" fill="var(--panel)" fill-opacity="0.94" stroke="var(--primary-text)" stroke-opacity="0.12" stroke-width="1.5"/>
      <text id="ITEM_1_HEAD" data-bg-id="ITEM_1_TEXT_BG" text-anchor="middle" font-weight="bold" font-size="27" fill="var(--accent-1)" x="0.0" y="90.0" fill-opacity="1.0" stroke="none" style="font-size: 31px; font-family: 'Segoe UI Variable Display', 'Aptos Display', 'Inter', 'Segoe UI', Helvetica, Arial, sans-serif; font-weight: 700; font-kerning: normal; font-feature-settings: &quot;kern&quot; 1, &quot;liga&quot; 1; letter-spacing:-0.4px;" data-final-font-size="31">
        <tspan x="0.0" dy="31.02px">October 1954 Sighting</tspan>
      </text>
      <rect id="ITEM_1_HEAD_FRAME" x="-190" y="90" width="380" height="45" fill="none"/>
      <text id="ITEM_1_BODY" data-bg-id="ITEM_1_TEXT_BG" text-anchor="middle" font-size="19.5" fill="var(--primary-text)" x="0.0" y="144.0" style="font-size: 23px; font-family: 'Segoe UI Variable Text', 'Aptos', 'Inter', 'Segoe UI', Helvetica, Arial, sans-serif; font-weight: 400; font-kerning: normal; font-feature-settings: &quot;kern&quot; 1, &quot;liga&quot; 1;" data-final-font-size="23">
        <tspan x="0.0" dy="35.66px">Italian farmer witnesses egg-shaped</tspan>
        <tspan x="0.0" dy="26.45px">craft land near Tripoli</tspan>
      </text>
      <rect id="ITEM_1_BODY_FRAME" x="-190" y="144" width="380" height="120" fill="none"/>
      <circle id="TIMELINE_SNAKE_ART_MILESTONE_AURA_1" cx="0" cy="0" r="58" fill="url(#svg9fe15fce-universal-icon-aura)" opacity="0.82" stroke="var(--accent-1)" stroke-opacity="1.0" display="none" data-suppressed-decoration="redundant-badge-ring"/>
      <circle id="ITEM_1_PAD" cx="0" cy="0" r="39" fill="var(--icon-pad-bg)" stroke="var(--accent-1)" opacity="1" fill-opacity="0.9" stroke-width="2" stroke-opacity="0.72" data-badge-layer="pad"/>
      <circle id="ITEM_1_PAD_INNER" cx="0" cy="0" r="30.42" fill="var(--accent-1)" fill-opacity="0.12" stroke="none" data-badge-layer="tint"/>
      <circle cx="0" cy="0" r="31.2" fill="none" stroke="var(--accent-1)" stroke-width="3" stroke-dasharray="6 4" display="none" data-suppressed-decoration="redundant-badge-ring"/>
      <g id="ITEM_1_ICON" transform="translate(-30.0, -30.0)" data-icon-size="60" stroke-linecap="round" stroke-linejoin="round" data-badge-treatment="clean">
        <g transform="translate(-4.727256637168144,-10.111327433628324) scale(2.153628318584071)">
          <path d="M15 7C14.4477 7 14 7.44772 14 8C14 8.55228 14.4477 9 15 9H15.6772L20.8386 9.99539L26 9V8C26 7.44772 25.5523 7 25 7H15ZM26 16L19 14.5L11 16.0001H5C3.5 16.0001 2 17.5 2 19.0301V19.9929V20.0101V25.0038C2 26.1018 2.89931 27.0001 3.99846 27.0001H14.98H25.2521C26.7709 27.0001 28 25.7724 28 24.2551V18.4357C28 17.2376 27.139 16.2447 26 16.0391C26 16 26 16 26 16Z" fill="#00F397"/>
          <path d="M10 17H9V13.4988C9 13.2195 9.22 13 9.5 13C9.78 13 10 13.2195 10 13.4988V17Z" fill="#D3D3D3"/>
          <path d="M10 14H9V15H10V14Z" fill="#9B9B9B"/>
          <path d="M30 24.5101C30 27.5477 27.5376 30.0101 24.5 30.0101C21.4625 30.0101 19 27.5477 19 24.5101C19 21.4726 21.4625 19.0101 24.5 19.0101C27.5376 19.0101 30 21.4726 30 24.5101ZM11.02 26.5101C11.02 28.4431 9.45302 30.0101 7.52002 30.0101C5.58702 30.0101 4.02002 28.4431 4.02002 26.5101C4.02002 24.5771 5.58702 23.0101 7.52002 23.0101C9.45302 23.0101 11.02 24.5771 11.02 26.5101Z" fill="#321B41"/>
          <path d="M27 24.5C27 25.8807 25.8807 27 24.5 27C23.1193 27 22 25.8807 22 24.5C22 23.1193 23.1193 22 24.5 22C25.8807 22 27 23.1193 27 24.5ZM9 26.5C9 27.3284 8.32843 28 7.5 28C6.67157 28 6 27.3284 6 26.5C6 25.6716 6.67157 25 7.5 25C8.32843 25 9 25.6716 9 26.5Z" fill="#D3D3D3"/>
          <path d="M15.68 9L11 16H25V9H15.68Z" fill="#26C9FC"/>
          <path d="M18 9H17V16H18V9ZM26 9H25V16H26V9ZM23.99 18.0001C20.6772 18.0001 18 20.6852 18 24C18 24.2761 17.7762 24.5 17.5 24.5C17.2239 24.5 17 24.2761 17 24C17 20.1348 20.1229 17.0001 23.99 17.0001H29.51C29.7862 17.0001 30.01 17.224 30.01 17.5001C30.01 17.7763 29.7862 18.0001 29.51 18.0001H23.99ZM5.52002 21.5101C5.52002 21.234 5.74388 21.0101 6.02002 21.0101H8.51002C10.9962 21.0101 13.01 23.024 13.01 25.5101C13.01 25.7863 12.7862 26.0101 12.51 26.0101C12.2339 26.0101 12.01 25.7863 12.01 25.5101C12.01 23.5763 10.4439 22.0101 8.51002 22.0101H6.02002C5.74388 22.0101 5.52002 21.7863 5.52002 21.5101Z" fill="#008463"/>
          <path d="M3.50739 20.0001H2V19.0001H3.50739C3.78325 19.0001 4 19.2201 4 19.5001C4 19.7801 3.78325 20.0001 3.50739 20.0001ZM3.50739 22H2V21H3.50739C3.78325 21 4 21.22 4 21.5C4 21.77 3.78325 22 3.50739 22ZM2 24H3.50739C3.78325 24 4 23.77 4 23.5C4 23.22 3.78325 23 3.50739 23H2V24Z" fill="#321B41"/>
        </g>
      </g>
    </g>
    <g transform="translate(1440.0, 360.0)">
      <circle id="ITEM_2_NODE" r="50" fill="none" stroke="var(--accent-2)" stroke-width="2" stroke-opacity="0.58" data-badge-layer="outline"/>
      <rect id="ITEM_2_TEXT_BG" x="-208.0" y="74.0" width="416.0" height="206.0" rx="22" fill="var(--panel)" fill-opacity="0.94" stroke="var(--primary-text)" stroke-opacity="0.12" stroke-width="1.5"/>
      <text id="ITEM_2_HEAD" data-bg-id="ITEM_2_TEXT_BG" text-anchor="middle" font-weight="bold" font-size="27" fill="var(--accent-2)" x="0.0" y="90.0" fill-opacity="1.0" stroke="none" style="font-size: 31px; font-family: 'Segoe UI Variable Display', 'Aptos Display', 'Inter', 'Segoe UI', Helvetica, Arial, sans-serif; font-weight: 700; font-kerning: normal; font-feature-settings: &quot;kern&quot; 1, &quot;liga&quot; 1; letter-spacing:-0.4px;" data-final-font-size="31">
        <tspan x="0.0" dy="31.02px">Literature Publication</tspan>
      </text>
      <rect id="ITEM_2_HEAD_FRAME" x="-190" y="90" width="380" height="45" fill="none"/>
      <text id="ITEM_2_BODY" data-bg-id="ITEM_2_TEXT_BG" text-anchor="middle" font-size="19.5" fill="var(--primary-text)" x="0.0" y="144.0" style="font-size: 23px; font-family: 'Segoe UI Variable Text', 'Aptos', 'Inter', 'Segoe UI', Helvetica, Arial, sans-serif; font-weight: 400; font-kerning: normal; font-feature-settings: &quot;kern&quot; 1, &quot;liga&quot; 1;" data-final-font-size="23">
        <tspan x="0.0" dy="35.66px">Jacques Vallée includes event</tspan>
        <tspan x="0.0" dy="26.45px">in Passport to Magonia</tspan>
      </text>
      <rect id="ITEM_2_BODY_FRAME" x="-190" y="144" width="380" height="120" fill="none"/>
      <circle id="TIMELINE_SNAKE_ART_MILESTONE_AURA_2" cx="0" cy="0" r="58" fill="url(#svg9fe15fce-universal-icon-aura)" opacity="0.82" stroke="var(--accent-2)" stroke-opacity="1.0" display="none" data-suppressed-decoration="redundant-badge-ring"/>
      <circle id="ITEM_2_PAD" cx="0" cy="0" r="39" fill="var(--icon-pad-bg)" stroke="var(--accent-2)" opacity="1" fill-opacity="0.9" stroke-width="2" stroke-opacity="0.72" data-badge-layer="pad"/>
      <circle id="ITEM_2_PAD_INNER" cx="0" cy="0" r="30.42" fill="var(--accent-2)" fill-opacity="0.12" stroke="none" data-badge-layer="tint"/>
      <circle cx="0" cy="0" r="31.2" fill="none" stroke="var(--accent-2)" stroke-width="3" stroke-dasharray="6 4" display="none" data-suppressed-decoration="redundant-badge-ring"/>
      <g id="ITEM_2_ICON" transform="translate(-30.0, -30.0)" data-icon-size="60" stroke-linecap="round" stroke-linejoin="round" data-badge-treatment="clean">
        <g transform="translate(-10.560000000000002,-10.560000000000002) scale(3.3800000000000003)" vector-effect="non-scaling-stroke" stroke-width="2.43" stroke-linecap="round" stroke-linejoin="round" stroke-opacity="1.0">
          <path d="m16 6 4 14" vector-effect="non-scaling-stroke" fill="none" stroke="#f1f5f9"/>
          <path d="M12 6v14" vector-effect="non-scaling-stroke" fill="none" stroke="#f1f5f9"/>
          <path d="M8 8v12" vector-effect="non-scaling-stroke" fill="none" stroke="#f1f5f9"/>
          <path d="M4 4v16" vector-effect="non-scaling-stroke" fill="none" stroke="#f1f5f9"/>
        </g>
      </g>
    </g>
    <g transform="translate(1440.0, 750.0)">
      <circle id="ITEM_3_NODE" r="50" fill="none" stroke="var(--accent-3)" stroke-width="2" stroke-opacity="0.58" data-badge-layer="outline"/>
      <rect id="ITEM_3_TEXT_BG" x="-208.0" y="74.0" width="416.0" height="206.0" rx="22" fill="var(--panel)" fill-opacity="0.94" stroke="var(--primary-text)" stroke-opacity="0.12" stroke-width="1.5"/>
      <text id="ITEM_3_HEAD" data-bg-id="ITEM_3_TEXT_BG" text-anchor="middle" font-weight="bold" font-size="27" fill="var(--accent-3)" x="0.0" y="90.0" fill-opacity="1.0" stroke="none" style="font-size: 31px; font-family: 'Segoe UI Variable Display', 'Aptos Display', 'Inter', 'Segoe UI', Helvetica, Arial, sans-serif; font-weight: 700; font-kerning: normal; font-feature-settings: &quot;kern&quot; 1, &quot;liga&quot; 1; letter-spacing:-0.4px;" data-final-font-size="31">
        <tspan x="0.0" dy="31.02px">Data base Cataloging</tspan>
      </text>
      <rect id="ITEM_3_HEAD_FRAME" x="-190" y="90" width="380" height="45" fill="none"/>
      <text id="ITEM_3_BODY" data-bg-id="ITEM_3_TEXT_BG" text-anchor="middle" font-size="19.5" fill="var(--primary-text)" x="0.0" y="144.0" style="font-size: 23px; font-family: 'Segoe UI Variable Text', 'Aptos', 'Inter', 'Segoe UI', Helvetica, Arial, sans-serif; font-weight: 400; font-kerning: normal; font-feature-settings: &quot;kern&quot; 1, &quot;liga&quot; 1;" data-final-font-size="23">
        <tspan x="0.0" dy="35.66px">CUFOS and NICAP include accounts</tspan>
        <tspan x="0.0" dy="26.45px">in official data bases</tspan>
      </text>
      <rect id="ITEM_3_BODY_FRAME" x="-190" y="144" width="380" height="120" fill="none"/>
      <circle id="TIMELINE_SNAKE_ART_MILESTONE_AURA_3" cx="0" cy="0" r="58" fill="url(#svg9fe15fce-universal-icon-aura)" opacity="0.82" stroke="var(--accent-3)" stroke-opacity="1.0" display="none" data-suppressed-decoration="redundant-badge-ring"/>
      <circle id="ITEM_3_PAD" cx="0" cy="0" r="39" fill="var(--icon-pad-bg)" stroke="var(--accent-3)" opacity="1" fill-opacity="0.9" stroke-width="2" stroke-opacity="0.72" data-badge-layer="pad"/>
      <circle id="ITEM_3_PAD_INNER" cx="0" cy="0" r="30.42" fill="var(--accent-3)" fill-opacity="0.12" stroke="none" data-badge-layer="tint"/>
      <circle cx="0" cy="0" r="31.2" fill="none" stroke="var(--accent-3)" stroke-width="3" stroke-dasharray="6 4" display="none" data-suppressed-decoration="redundant-badge-ring"/>
      <g id="ITEM_3_ICON" transform="translate(-30.0, -30.0)" data-icon-size="60" stroke-linecap="round" stroke-linejoin="round" data-badge-treatment="clean">
        <g transform="translate(-2.9979661016949173,-2.9979661016949173) scale(2.7498305084745764)" vector-effect="non-scaling-stroke" stroke-width="2.43" stroke-linecap="round" stroke-linejoin="round" stroke-opacity="1.0">
          <rect width="20" height="14" x="2" y="3" rx="2" vector-effect="non-scaling-stroke" fill="none" stroke="#f1f5f9"/>
          <line x1="8" x2="16" y1="21" y2="21" vector-effect="non-scaling-stroke" fill="none" stroke="#f1f5f9"/>
          <line x1="12" x2="12" y1="17" y2="21" vector-effect="non-scaling-stroke" fill="none" stroke="#f1f5f9"/>
        </g>
      </g>
    </g>
    <g transform="translate(480.0, 750.0)">
      <circle id="ITEM_4_NODE" r="50" fill="none" stroke="var(--accent-1)" stroke-width="2" stroke-opacity="0.58" data-badge-layer="outline"/>
      <rect id="ITEM_4_TEXT_BG" x="-208.0" y="74.0" width="416.0" height="206.0" rx="22" fill="var(--panel)" fill-opacity="0.94" stroke="var(--primary-text)" stroke-opacity="0.12" stroke-width="1.5"/>
      <text id="ITEM_4_HEAD" data-bg-id="ITEM_4_TEXT_BG" text-anchor="middle" font-weight="bold" font-size="27" fill="var(--accent-1)" x="0.0" y="90.0" fill-opacity="1.0" stroke="none" style="font-size: 31px; font-family: 'Segoe UI Variable Display', 'Aptos Display', 'Inter', 'Segoe UI', Helvetica, Arial, sans-serif; font-weight: 700; font-kerning: normal; font-feature-settings: &quot;kern&quot; 1, &quot;liga&quot; 1; letter-spacing:-0.4px;" data-final-font-size="31">
        <tspan x="0.0" dy="31.02px">Modern Retelling</tspan>
      </text>
      <rect id="ITEM_4_HEAD_FRAME" x="-190" y="90" width="380" height="45" fill="none"/>
      <text id="ITEM_4_BODY" data-bg-id="ITEM_4_TEXT_BG" text-anchor="middle" font-size="19.5" fill="var(--primary-text)" x="0.0" y="144.0" style="font-size: 23px; font-family: 'Segoe UI Variable Text', 'Aptos', 'Inter', 'Segoe UI', Helvetica, Arial, sans-serif; font-weight: 400; font-kerning: normal; font-feature-settings: &quot;kern&quot; 1, &quot;liga&quot; 1;" data-final-font-size="23">
        <tspan x="0.0" dy="35.66px">Websites reproduce identical</tspan>
        <tspan x="0.0" dy="26.45px">descriptions from secondary sources</tspan>
      </text>
      <rect id="ITEM_4_BODY_FRAME" x="-190" y="144" width="380" height="120" fill="none"/>
      <circle id="TIMELINE_SNAKE_ART_MILESTONE_AURA_4" cx="0" cy="0" r="58" fill="url(#svg9fe15fce-universal-icon-aura)" opacity="0.82" stroke="var(--accent-1)" stroke-opacity="1.0" display="none" data-suppressed-decoration="redundant-badge-ring"/>
      <circle id="ITEM_4_PAD" cx="0" cy="0" r="39" fill="var(--icon-pad-bg)" stroke="var(--accent-1)" opacity="1" fill-opacity="0.9" stroke-width="2" stroke-opacity="0.72" data-badge-layer="pad"/>
      <circle id="ITEM_4_PAD_INNER" cx="0" cy="0" r="30.42" fill="var(--accent-1)" fill-opacity="0.12" stroke="none" data-badge-layer="tint"/>
      <circle cx="0" cy="0" r="31.2" fill="none" stroke="var(--accent-4)" stroke-width="3" stroke-dasharray="6 4" display="none" data-suppressed-decoration="redundant-badge-ring"/>
      <g id="ITEM_4_ICON" transform="translate(-30.0, -30.0)" data-icon-size="60" stroke-linecap="round" stroke-linejoin="round" data-badge-treatment="clean">
        <g transform="translate(-4.765714285714288,-4.765714285714288) scale(2.172857142857143)">
          <path d="M27.9999 20L15.9999 19L3.99992 20L2.01992 28.8911C1.9104 29.657 2.99521 29.5 3.49992 29.5H28.4999C29.0046 29.5 30.0894 29.657 29.9799 28.8911L27.9999 20Z" fill="#D3D3D3"/>
          <path d="M27 2H5C4.45 2 4 2.45 4 3V19.99H28V3C28 2.45 27.55 2 27 2Z" fill="#7167A4"/>
          <path d="M5 18.74V3.25C5 3.11 5.11 3 5.25 3H26.75C26.89 3 27 3.11 27 3.25V18.74C27 18.88 26.89 18.99 26.75 18.99H5.25C5.11 18.99 5 18.88 5 18.74Z" fill="#26C9FC"/>
          <path fill-rule="evenodd" clip-rule="evenodd" d="M27.27 21.28L27.99 24.53C28.04 24.77 27.86 24.99 27.62 24.99H4.37997C4.13997 24.99 3.95997 24.76 4.00997 24.53L4.72997 21.28C4.76997 21.11 4.91997 20.99 5.09997 20.99H26.9C27.08 20.99 27.23 21.11 27.27 21.28ZM8.18555 24.5H6.75344L6.87845 23.75H8.2793L8.18555 24.5ZM10.1241 24.5H8.68944L8.7832 23.75H10.1866L10.1241 24.5ZM11.9623 24.5H10.6259L10.6884 23.75H11.9936L11.9623 24.5ZM13.8123 24.5H12.4627L12.494 23.75H13.8435L13.8123 24.5ZM15.75 24.5H14.3127L14.344 23.75H15.75V24.5ZM17.6873 24.5H16.25V23.75H17.656L17.6873 24.5ZM19.5373 24.5H18.1877L18.1565 23.75H19.506L19.5373 24.5ZM21.3741 24.5H20.0377L20.0064 23.75H21.3116L21.3741 24.5ZM23.3106 24.5H21.8759L21.8134 23.75H23.2168L23.3106 24.5ZM25.2466 24.5H23.8145L23.7207 23.75H25.1216L25.2466 24.5ZM27 24.5H25.7535L25.6284 23.75H26.875L27 24.5ZM26.6667 22.5L26.7917 23.25H25.5451L25.4201 22.5H26.6667ZM26.5 21.5L26.5833 22H25.3368L25.2535 21.5H26.5ZM23.4395 21.5H24.7466L24.8299 22H23.5019L23.4395 21.5ZM21.6259 21.5H22.9356L22.9981 22H21.6675L21.6259 21.5ZM19.9127 21.5H21.1241L21.1658 22H19.9335L19.9127 21.5ZM18.0627 21.5H19.4123L19.4331 22H18.0835L18.0627 21.5ZM16.25 21.5H17.5623L17.5831 22H16.25V21.5ZM14.4377 21.5H15.75V22H14.4169L14.4377 21.5ZM12.5877 21.5H13.9373L13.9164 22H12.5669L12.5877 21.5ZM10.8759 21.5H12.0873L12.0665 22H10.8342L10.8759 21.5ZM9.06444 21.5H10.3741L10.3325 22H9.00195L9.06444 21.5ZM7.25344 21.5H8.56055L8.49805 22H7.17012L7.25344 21.5ZM5.5 21.5H6.74655L6.66322 22H5.41667L5.5 21.5ZM5.20834 23.25L5.33334 22.5H6.57989L6.45489 23.25H5.20834ZM5 24.5L5.12501 23.75H6.37155L6.24655 24.5H5ZM25.0382 23.25L24.9132 22.5H23.5644L23.6582 23.25H25.0382ZM23.1543 23.25L23.0606 22.5H21.7092L21.7717 23.25H23.1543ZM21.27 23.25L21.2075 22.5H19.9544L19.9856 23.25H21.27ZM19.4852 23.25L19.4539 22.5H18.1044L18.1356 23.25H19.4852ZM17.6352 23.25L17.6039 22.5H16.25V23.25H17.6352ZM7.08678 22.5L6.96178 23.25H8.3418L8.43555 22.5H7.08678ZM8.93945 22.5L8.8457 23.25H10.2283L10.2908 22.5H8.93945ZM10.7925 22.5L10.73 23.25H12.0144L12.0456 22.5H10.7925ZM12.5461 22.5L12.5148 23.25H13.8644L13.8956 22.5H12.5461ZM14.3961 22.5L14.3648 23.25H15.75V22.5H14.3961Z" fill="#9B9B9B"/>
          <path d="M29.09 29C29.44 29 29.74 28.8 29.89 28.51L29.98 28.89L29.9834 28.9133C29.9921 28.9736 30 29.0279 30 29.09C30 29.59 29.59 30 29.09 30H2.91C2.41 30 2 29.59 2 29.09C2 29.02 2.01 28.96 2.03 28.9L2.11 28.52C2.26 28.8 2.56 29 2.91 29H29.09Z" fill="#9B9B9B"/>
          <path d="M10.82 27.99H21.18C21.34 27.99 21.46 27.84 21.42 27.68L21.04 26.18C21.01 26.07 20.91 25.99 20.8 25.99H11.2C11.09 25.99 10.99 26.07 10.96 26.18L10.58 27.68C10.54 27.84 10.66 27.99 10.82 27.99Z" fill="#9B9B9B"/>
        </g>
      </g>
    </g>
    <line id="PHX_SEQUENCE_MIDROUTE_ARROW_1" x1="988.0" y1="750.0" x2="932.0" y2="750.0" stroke="var(--muted-text)" opacity="0.92" stroke-width="5" stroke-linecap="round" marker-end="url(#svg9fe15fce-PHX_SEQUENCE_DIRECTION_ARROW)" data-direction-cue="forward"/>
    <line id="PHX_SEQUENCE_MIDROUTE_ARROW_2" x1="932.0" y1="360.0" x2="988.0" y2="360.0" stroke="var(--muted-text)" opacity="0.92" stroke-width="5" stroke-linecap="round" marker-end="url(#svg9fe15fce-PHX_SEQUENCE_DIRECTION_ARROW)" data-direction-cue="forward"/>
  </g>
  <text id="SOURCE_NOTE" x="134.0" y="1058.0" fill="var(--muted-text)" opacity="0.88" style="font-family: var(--font-family); font-size: 20px;">Source: Introduction</text>
</svg>
